<svg width="221" height="214" viewBox="0 0 221 214" fill="none" xmlns="http://www.w3.org/2000/svg">
<rect width="221" height="214" fill="#D9D9D9"/>
<ellipse cx="59.5" cy="107" rx="12.5" ry="13" fill="white"/>
<path d="M87.592 111.832H92.968V115H83.488V98.152H87.592V111.832ZM101.022 115.192C99.7095 115.192 98.5255 114.912 97.4695 114.352C96.4295 113.792 95.6055 112.992 94.9975 111.952C94.4055 110.912 94.1095 109.696 94.1095 108.304C94.1095 106.928 94.4135 105.72 95.0215 104.68C95.6295 103.624 96.4615 102.816 97.5175 102.256C98.5735 101.696 99.7575 101.416 101.07 101.416C102.382 101.416 103.566 101.696 104.622 102.256C105.678 102.816 106.51 103.624 107.118 104.68C107.726 105.72 108.03 106.928 108.03 108.304C108.03 109.68 107.718 110.896 107.094 111.952C106.486 112.992 105.646 113.792 104.574 114.352C103.518 114.912 102.334 115.192 101.022 115.192ZM101.022 111.64C101.806 111.64 102.47 111.352 103.014 110.776C103.574 110.2 103.854 109.376 103.854 108.304C103.854 107.232 103.582 106.408 103.038 105.832C102.51 105.256 101.854 104.968 101.07 104.968C100.27 104.968 99.6055 105.256 99.0775 105.832C98.5495 106.392 98.2855 107.216 98.2855 108.304C98.2855 109.376 98.5415 110.2 99.0535 110.776C99.5815 111.352 100.238 111.64 101.022 111.64ZM115.295 101.416C116.239 101.416 117.063 101.608 117.767 101.992C118.487 102.376 119.039 102.88 119.423 103.504V101.608H123.527V114.976C123.527 116.208 123.279 117.32 122.783 118.312C122.303 119.32 121.559 120.12 120.551 120.712C119.559 121.304 118.319 121.6 116.831 121.6C114.847 121.6 113.239 121.128 112.007 120.184C110.775 119.256 110.071 117.992 109.895 116.392H113.951C114.079 116.904 114.383 117.304 114.863 117.592C115.343 117.896 115.935 118.048 116.639 118.048C117.487 118.048 118.159 117.8 118.655 117.304C119.167 116.824 119.423 116.048 119.423 114.976V113.08C119.023 113.704 118.471 114.216 117.767 114.616C117.063 115 116.239 115.192 115.295 115.192C114.191 115.192 113.191 114.912 112.295 114.352C111.399 113.776 110.687 112.968 110.159 111.928C109.647 110.872 109.391 109.656 109.391 108.28C109.391 106.904 109.647 105.696 110.159 104.656C110.687 103.616 111.399 102.816 112.295 102.256C113.191 101.696 114.191 101.416 115.295 101.416ZM119.423 108.304C119.423 107.28 119.135 106.472 118.559 105.88C117.999 105.288 117.311 104.992 116.495 104.992C115.679 104.992 114.983 105.288 114.407 105.88C113.847 106.456 113.567 107.256 113.567 108.28C113.567 109.304 113.847 110.12 114.407 110.728C114.983 111.32 115.679 111.616 116.495 111.616C117.311 111.616 117.999 111.32 118.559 110.728C119.135 110.136 119.423 109.328 119.423 108.304ZM132.592 115.192C131.28 115.192 130.096 114.912 129.04 114.352C128 113.792 127.176 112.992 126.568 111.952C125.976 110.912 125.68 109.696 125.68 108.304C125.68 106.928 125.984 105.72 126.592 104.68C127.2 103.624 128.032 102.816 129.088 102.256C130.144 101.696 131.328 101.416 132.64 101.416C133.952 101.416 135.136 101.696 136.192 102.256C137.248 102.816 138.08 103.624 138.688 104.68C139.296 105.72 139.6 106.928 139.6 108.304C139.6 109.68 139.288 110.896 138.664 111.952C138.056 112.992 137.216 113.792 136.144 114.352C135.088 114.912 133.904 115.192 132.592 115.192ZM132.592 111.64C133.376 111.64 134.04 111.352 134.584 110.776C135.144 110.2 135.424 109.376 135.424 108.304C135.424 107.232 135.152 106.408 134.608 105.832C134.08 105.256 133.424 104.968 132.64 104.968C131.84 104.968 131.176 105.256 130.648 105.832C130.12 106.392 129.856 107.216 129.856 108.304C129.856 109.376 130.112 110.2 130.624 110.776C131.152 111.352 131.808 111.64 132.592 111.64Z" fill="white"/>
</svg>